<?xml version="1.0" encoding="UTF-8"?>
<svg xmlns="http://www.w3.org/2000/svg" xmlns:se="https://standardebooks.org/vocab/1.0" version="1.1" viewBox="0 0 1400 590" se:generated-from="881a153f119c6d61b0ee0150ca996a2dbf4adda0">
	<path d="M 414.47893,128.60001 432.07009,128.60001 425.14591,51.404756 406.43191,51.404756 389.3086,95.944076 372.18529,51.404756 353.47129,51.404756 346.54711,128.60001 364.13827,128.60001 367.7875,82.844276 368.25535,82.844276 384.06868,128.13216 394.54852,128.13216 410.36185,82.844276 410.8297,82.844276 414.47893,128.60001 Z"/>
	<path d="M 488.28212,51.404756 444.11708,51.404756 444.11708,128.60001 488.28212,128.60001 488.28212,113.16096 461.70824,113.16096 461.70824,97.628336 487.15928,97.628336 487.15928,82.189286 461.70824,82.189286 461.70824,66.843806 488.28212,66.843806 488.28212,51.404756 Z"/>
	<path d="M 503.39499,51.404756 503.39499,128.60001 525.75822,128.60001 C 546.99861,128.60001 564.68334,112.50597 564.68334,89.955596 564.68334,67.498796 546.90504,51.404756 525.75822,51.404756 L 503.39499,51.404756 Z M 520.98615,112.88025 520.98615,67.124516 523.69968,67.124516 C 536.79948,67.124516 545.68863,77.136506 545.68863,90.049166 545.59506,102.96183 536.70591,112.88025 523.69968,112.88025 L 520.98615,112.88025 Z"/>
	<path d="M 595.06712,51.404756 577.47596,51.404756 577.47596,128.60001 595.06712,128.60001 595.06712,51.404756 Z"/>
	<path d="M 601.91659,66.843806 620.25631,66.843806 620.25631,128.60001 637.84747,128.60001 637.84747,66.843806 656.18719,66.843806 656.18719,51.404756 601.91659,51.404756 601.91659,66.843806 Z"/>
	<path d="M 702.15914,51.404756 685.87796,51.404756 654.71915,128.60001 673.62029,128.60001 679.32806,113.16096 708.70904,113.16096 714.41681,128.60001 733.31795,128.60001 702.15914,51.404756 Z M 702.72056,97.721906 685.31654,97.721906 693.92498,75.265106 694.11212,75.265106 702.72056,97.721906 Z"/>
	<path d="M 731.80316,66.843806 750.14288,66.843806 750.14288,128.60001 767.73404,128.60001 767.73404,66.843806 786.07376,66.843806 786.07376,51.404756 731.80316,51.404756 731.80316,66.843806 Z"/>
	<path d="M 814.99989,51.404756 797.40873,51.404756 797.40873,128.60001 814.99989,128.60001 814.99989,51.404756 Z"/>
	<path d="M 827.82176,89.955596 C 827.82176,112.50597 843.9158,130.00356 866.74688,130.00356 888.92297,130.00356 905.57843,112.50597 905.57843,89.955596 905.57843,67.405226 888.17441,50.001206 866.74688,50.001206 845.50649,50.001206 827.82176,67.405226 827.82176,89.955596 Z M 846.81647,89.955596 C 846.81647,78.446486 853.17923,66.937376 866.74688,66.937376 880.4081,66.937376 886.58372,78.446486 886.58372,89.955596 886.58372,101.46471 880.78238,112.97382 866.74688,112.97382 852.3371,112.97382 846.81647,101.46471 846.81647,89.955596 Z"/>
	<path d="M 935.9315,80.692166 936.11864,80.692166 966.8096,128.60001 984.40076,128.60001 984.40076,51.404756 966.8096,51.404756 966.8096,99.312596 966.62246,99.312596 935.9315,51.404756 918.34034,51.404756 918.34034,128.60001 935.9315,128.60001 935.9315,80.692166 Z"/>
	<path d="M 1027.263,50.001206 C 1014.8182,50.001206 1002.0926,59.171066 1002.0926,73.580846 1002.0926,81.627866 1007.5197,88.832756 1016.7831,93.417686 1025.953,98.002616 1034.1872,100.52901 1034.1872,106.14321 1034.1872,113.3481 1026.8887,113.72238 1023.0523,113.72238 1014.4439,113.72238 1004.1512,105.02037 1004.1512,105.02037 L 995.3556,119.80443 C 995.3556,119.80443 1006.3033,130.00356 1024.3623,130.00356 1039.4271,130.00356 1053.4626,123.54723 1053.4626,105.11394 1053.4626,95.008376 1044.012,87.709916 1035.4036,84.060686 1026.608,80.317886 1019.3095,77.230076 1019.3095,72.925856 1019.3095,68.715206 1022.4909,66.001676 1028.4794,66.001676 1036.4328,66.001676 1044.1056,71.335166 1044.1056,71.335166 L 1051.2169,57.299666 C 1051.2169,57.299666 1041.2985,50.001206 1027.263,50.001206 Z"/>
	<path d="M 367.91356,288.95001 381.1074,288.95001 375.91408,231.05151 361.87808,231.05151 349.03514,264.45719 336.1922,231.05151 322.1562,231.05151 316.96288,288.95001 330.15672,288.95001 332.89374,254.63199 333.24464,254.63199 345.10506,288.59911 352.96522,288.59911 364.82564,254.63199 365.17654,254.63199 367.91356,288.95001 Z"/>
	<path d="M 420.79825,231.05151 408.58693,231.05151 385.21699,288.95001 399.39335,288.95001 403.67433,277.37031 425.71085,277.37031 429.99183,288.95001 444.16819,288.95001 420.79825,231.05151 Z M 421.21933,265.79061 408.16585,265.79061 414.62241,248.94741 414.76277,248.94741 421.21933,265.79061 Z"/>
	<path d="M 451.35802,231.05151 451.35802,288.95001 464.55186,288.95001 464.55186,266.07133 482.23722,288.95001 499.01024,288.95001 479.07912,265.01863 C 486.1673,262.77287 490.93954,256.94793 490.93954,248.24561 490.93954,236.87645 482.79866,231.05151 472.06112,231.05151 L 451.35802,231.05151 Z M 464.55186,256.73739 464.55186,241.57851 466.09582,241.57851 C 471.0786,241.57851 477.0439,241.92941 477.0439,249.15795 477.0439,256.38649 471.0786,256.73739 466.09582,256.73739 L 464.55186,256.73739 Z"/>
	<path d="M 537.47185,277.01941 C 524.20783,277.01941 518.38289,267.75565 518.38289,259.96567 518.38289,252.24587 524.20783,242.98211 537.47185,242.98211 544.20913,242.98211 548.84101,246.56129 548.84101,246.56129 L 554.45541,235.33249 C 554.45541,235.33249 547.99885,229.99881 535.43663,229.99881 519.01451,229.99881 504.06617,243.47337 504.06617,260.10603 504.06617,276.66851 519.08469,290.00271 535.43663,290.00271 547.99885,290.00271 554.45541,284.66903 554.45541,284.66903 L 548.84101,273.44023 C 548.84101,273.44023 544.20913,277.01941 537.47185,277.01941 Z"/>
	<path d="M 609.0661,231.05151 595.87226,231.05151 595.87226,264.52737 C 595.87226,274.21221 592.9247,277.01941 586.46814,277.01941 580.01158,277.01941 577.06402,274.21221 577.06402,264.52737 L 577.06402,231.05151 563.87018,231.05151 563.87018,268.38727 C 563.87018,282.70399 571.73034,290.00271 586.46814,290.00271 601.20594,290.00271 609.0661,282.70399 609.0661,268.38727 L 609.0661,231.05151 Z"/>
	<path d="M 641.75978,229.99881 C 632.42584,229.99881 622.88136,236.87645 622.88136,247.68417 622.88136,253.71965 626.9518,259.12351 633.89962,262.56233 640.77726,266.00115 646.9531,267.89601 646.9531,272.10681 646.9531,277.51067 641.47906,277.79139 638.60168,277.79139 632.14512,277.79139 624.42532,271.26465 624.42532,271.26465 L 617.8284,282.35309 C 617.8284,282.35309 626.03946,290.00271 639.5842,290.00271 650.88318,290.00271 661.41018,285.16029 661.41018,271.33483 661.41018,263.75539 654.322,258.28135 647.86544,255.54433 641.26852,252.73713 635.79448,250.42119 635.79448,247.19291 635.79448,244.03481 638.1806,241.99959 642.67212,241.99959 648.63742,241.99959 654.39218,245.99985 654.39218,245.99985 L 659.72586,235.47285 C 659.72586,235.47285 652.28678,229.99881 641.75978,229.99881 Z"/>
	<path d="M 726.17249,231.05151 713.96117,231.05151 690.59123,288.95001 704.76759,288.95001 709.04857,277.37031 731.08509,277.37031 735.36607,288.95001 749.54243,288.95001 726.17249,231.05151 Z M 726.59357,265.79061 713.54009,265.79061 719.99665,248.94741 720.13701,248.94741 726.59357,265.79061 Z"/>
	<path d="M 801.2264,231.05151 788.03256,231.05151 788.03256,264.52737 C 788.03256,274.21221 785.085,277.01941 778.62844,277.01941 772.17188,277.01941 769.22432,274.21221 769.22432,264.52737 L 769.22432,231.05151 756.03048,231.05151 756.03048,268.38727 C 756.03048,282.70399 763.89064,290.00271 778.62844,290.00271 793.36624,290.00271 801.2264,282.70399 801.2264,268.38727 L 801.2264,231.05151 Z"/>
	<path d="M 813.95607,231.05151 813.95607,288.95001 827.14991,288.95001 827.14991,266.07133 844.83527,288.95001 861.60829,288.95001 841.67717,265.01863 C 848.76535,262.77287 853.53759,256.94793 853.53759,248.24561 853.53759,236.87645 845.39671,231.05151 834.65917,231.05151 L 813.95607,231.05151 Z M 827.14991,256.73739 827.14991,241.57851 828.69387,241.57851 C 833.67665,241.57851 839.64195,241.92941 839.64195,249.15795 839.64195,256.38649 833.67665,256.73739 828.69387,256.73739 L 827.14991,256.73739 Z"/>
	<path d="M 902.38584,231.05151 869.26088,231.05151 869.26088,288.95001 902.38584,288.95001 902.38584,277.37031 882.45472,277.37031 882.45472,265.72043 901.54368,265.72043 901.54368,254.14073 882.45472,254.14073 882.45472,242.63121 902.38584,242.63121 902.38584,231.05151 Z"/>
	<path d="M 928.16462,231.05151 914.97078,231.05151 914.97078,288.95001 948.09574,288.95001 948.09574,277.37031 928.16462,277.37031 928.16462,231.05151 Z"/>
	<path d="M 972.7779,231.05151 959.58406,231.05151 959.58406,288.95001 972.7779,288.95001 972.7779,231.05151 Z"/>
	<path d="M 1030.7353,231.05151 1017.5414,231.05151 1017.5414,264.52737 C 1017.5414,274.21221 1014.5939,277.01941 1008.1373,277.01941 1001.6808,277.01941 998.73321,274.21221 998.73321,264.52737 L 998.73321,231.05151 985.53937,231.05151 985.53937,268.38727 C 985.53937,282.70399 993.39953,290.00271 1008.1373,290.00271 1022.8751,290.00271 1030.7353,282.70399 1030.7353,268.38727 L 1030.7353,231.05151 Z"/>
	<path d="M 1063.429,229.99881 C 1054.095,229.99881 1044.5506,236.87645 1044.5506,247.68417 1044.5506,253.71965 1048.621,259.12351 1055.5688,262.56233 1062.4465,266.00115 1068.6223,267.89601 1068.6223,272.10681 1068.6223,277.51067 1063.1483,277.79139 1060.2709,277.79139 1053.8143,277.79139 1046.0945,271.26465 1046.0945,271.26465 L 1039.4976,282.35309 C 1039.4976,282.35309 1047.7087,290.00271 1061.2534,290.00271 1072.5524,290.00271 1083.0794,285.16029 1083.0794,271.33483 1083.0794,263.75539 1075.9912,258.28135 1069.5346,255.54433 1062.9377,252.73713 1057.4637,250.42119 1057.4637,247.19291 1057.4637,244.03481 1059.8498,241.99959 1064.3413,241.99959 1070.3066,241.99959 1076.0614,245.99985 1076.0614,245.99985 L 1081.3951,235.47285 C 1081.3951,235.47285 1073.956,229.99881 1063.429,229.99881 Z"/>
	<path d="M 530.71791,517.68578 512.89321,517.68578 512.89321,524.46946 521.78217,524.46946 C 521.78217,529.19464 517.61839,531.90812 513.40783,531.90812 507.98089,531.90812 503.58319,526.57474 503.58319,520.02498 503.58319,513.33487 507.98089,507.95471 513.40783,507.95471 516.82307,507.95471 519.77046,509.31144 522.01609,512.91381 L 527.77052,506.59797 C 524.40207,502.52776 519.67689,500.00143 512.89321,500.00143 502.03932,500.00143 494.08604,508.93717 494.08604,520.02498 494.08604,531.066 502.50716,540.00175 512.89321,540.00175 520.47222,540.00175 528.61263,535.83797 530.71791,526.06012 L 530.71791,517.68578 Z"/>
	<path d="M 561.6421,500.70319 539.56005,500.70319 539.56005,539.29999 561.6421,539.29999 561.6421,531.58063 548.35544,531.58063 548.35544,523.81448 561.08069,523.81448 561.08069,516.09512 548.35544,516.09512 548.35544,508.42255 561.6421,508.42255 561.6421,500.70319 Z"/>
	<path d="M 569.96742,519.9782 C 569.96742,531.25314 578.01427,540.00175 589.42956,540.00175 600.51737,540.00175 608.84492,531.25314 608.84492,519.9782 608.84492,508.70325 600.1431,500.00143 589.42956,500.00143 578.8096,500.00143 569.96742,508.70325 569.96742,519.9782 Z M 579.46457,519.9782 C 579.46457,514.22376 582.64588,508.46933 589.42956,508.46933 596.26003,508.46933 599.34777,514.22376 599.34777,519.9782 599.34777,525.73263 596.44716,531.48706 589.42956,531.48706 582.22483,531.48706 579.46457,525.73263 579.46457,519.9782 Z"/>
	<path d="M 617.7258,500.70319 617.7258,539.29999 626.52119,539.29999 626.52119,524.0484 638.31076,539.29999 649.49214,539.29999 636.20548,523.34664 C 640.93067,521.84956 644.11198,517.96648 644.11198,512.16527 644.11198,504.58626 638.68503,500.70319 631.52708,500.70319 L 617.7258,500.70319 Z M 626.52119,517.82613 626.52119,507.72079 627.55044,507.72079 C 630.87211,507.72079 634.84875,507.95471 634.84875,512.77346 634.84875,517.59221 630.87211,517.82613 627.55044,517.82613 L 626.52119,517.82613 Z"/>
	<path d="M 691.16129,517.68578 673.33658,517.68578 673.33658,524.46946 682.22554,524.46946 C 682.22554,529.19464 678.06177,531.90812 673.85121,531.90812 668.42426,531.90812 664.02657,526.57474 664.02657,520.02498 664.02657,513.33487 668.42426,507.95471 673.85121,507.95471 677.26644,507.95471 680.21383,509.31144 682.45946,512.91381 L 688.2139,506.59797 C 684.84545,502.52776 680.12026,500.00143 673.33658,500.00143 662.4827,500.00143 654.52942,508.93717 654.52942,520.02498 654.52942,531.066 662.95054,540.00175 673.33658,540.00175 680.91559,540.00175 689.05601,535.83797 691.16129,526.06012 L 691.16129,517.68578 Z"/>
	<path d="M 722.08547,500.70319 700.00342,500.70319 700.00342,539.29999 722.08547,539.29999 722.08547,531.58063 708.79881,531.58063 708.79881,523.81448 721.52406,523.81448 721.52406,516.09512 708.79881,516.09512 708.79881,508.42255 722.08547,508.42255 722.08547,500.70319 Z"/>
	<path d="M 758.72969,500.70319 749.9343,500.70319 749.9343,539.29999 772.01635,539.29999 772.01635,531.58063 758.72969,531.58063 758.72969,500.70319 Z"/>
	<path d="M 779.61067,519.9782 C 779.61067,531.25314 787.65752,540.00175 799.07281,540.00175 810.16062,540.00175 818.48817,531.25314 818.48817,519.9782 818.48817,508.70325 809.78635,500.00143 799.07281,500.00143 788.45285,500.00143 779.61067,508.70325 779.61067,519.9782 Z M 789.10782,519.9782 C 789.10782,514.22376 792.28913,508.46933 799.07281,508.46933 805.90328,508.46933 808.99102,514.22376 808.99102,519.9782 808.99102,525.73263 806.09041,531.48706 799.07281,531.48706 791.86808,531.48706 789.10782,525.73263 789.10782,519.9782 Z"/>
	<path d="M 836.16444,515.34658 836.25801,515.34658 851.60316,539.29999 860.39856,539.29999 860.39856,500.70319 851.60316,500.70319 851.60316,524.6566 851.5096,524.6566 836.16444,500.70319 827.36905,500.70319 827.36905,539.29999 836.16444,539.29999 836.16444,515.34658 Z"/>
	<path d="M 905.92153,517.68578 888.09682,517.68578 888.09682,524.46946 896.98578,524.46946 C 896.98578,529.19464 892.82201,531.90812 888.61145,531.90812 883.1845,531.90812 878.78681,526.57474 878.78681,520.02498 878.78681,513.33487 883.1845,507.95471 888.61145,507.95471 892.02668,507.95471 894.97407,509.31144 897.2197,512.91381 L 902.97414,506.59797 C 899.60569,502.52776 894.8805,500.00143 888.09682,500.00143 877.24294,500.00143 869.28966,508.93717 869.28966,520.02498 869.28966,531.066 877.71078,540.00175 888.09682,540.00175 895.67583,540.00175 903.81625,535.83797 905.92153,526.06012 L 905.92153,517.68578 Z"/>
	<path d="M 594.74274,455.60187 C 594.74274,456.7921 597.25071,455.85692 597.25071,456.74959 597.25071,457.8973 595.46538,464.7836 595.46538,468.69434 595.46538,472.00996 597.03817,472.69009 598.18589,472.69009 600.82139,472.69009 604.43457,469.79954 604.43457,468.69434 604.43457,468.09922 604.0945,468.09922 603.96698,468.09922 603.28685,468.09922 602.30917,469.96958 599.97123,469.96958 599.80119,469.96958 598.2284,469.88456 598.2284,467.63164 598.2284,466.95151 599.20608,461.42547 599.58865,458.78997 599.8437,457.04714 599.71618,456.282 600.94891,456.282 601.88409,456.282 603.71193,456.49454 604.39206,456.49454 605.1572,456.49454 605.41225,456.23949 605.41225,455.26181 605.41225,454.75171 605.19971,454.45416 604.30704,454.45416 603.83945,454.45416 603.49939,454.49666 601.84158,454.49666 600.43881,454.49666 600.3538,454.45416 600.3538,454.19911 600.3538,453.56149 601.11894,451.56361 601.11894,451.01101 601.11894,450.62844 600.9064,450.50091 600.69386,450.50091 600.01373,450.50091 599.92872,451.05352 598.2284,452.83885 596.35805,454.79422 594.74274,454.75171 594.74274,455.60187 Z"/>
	<path d="M 606.85022,459.59762 C 606.85022,460.19274 607.19028,460.32026 607.36031,460.32026 607.57285,460.32026 607.70038,460.19274 607.8279,460.06521 608.08295,459.76766 608.42301,457.21718 610.16584,457.21718 610.93098,457.21718 611.61111,457.98232 611.61111,460.10772 611.61111,463.29582 609.78327,469.5445 609.78327,471.24482 609.78327,472.26501 610.63343,472.35002 611.05851,472.35002 L 611.27105,472.35002 C 612.80134,472.35002 612.71632,472.35002 613.6515,465.12366 L 613.86404,463.7209 C 614.07658,461.93556 615.13928,456.36702 617.05214,456.36702 618.58242,456.36702 618.41239,458.15235 619.34757,458.15235 620.11271,458.15235 620.19773,456.8346 620.28274,456.53705 620.41027,456.06946 620.75033,455.51686 620.75033,454.96425 620.75033,454.36914 620.28274,453.6465 619.17754,453.6465 616.03194,453.6465 613.90654,458.02483 613.60899,458.02483 613.52397,458.02483 613.48146,457.98232 612.41876,455.2193 612.16372,454.53917 611.73864,453.73152 610.84597,453.73152 610.4634,453.73152 606.85022,454.75171 606.85022,459.59762 Z"/>
	<path d="M 620.44148,467.33408 C 620.44148,470.0971 620.95158,472.81761 624.98984,472.81761 629.0281,472.81761 632.55626,467.71665 632.7688,467.71665 633.06636,467.71665 632.68379,472.47755 635.4043,472.47755 636.55202,472.47755 638.46488,470.52218 639.52758,468.99189 640.08018,468.22675 640.29272,467.58913 640.29272,467.16405 640.29272,466.99402 640.25021,466.69646 639.91015,466.69646 639.1025,466.69646 638.20983,469.45948 636.80706,469.45948 635.99941,469.45948 635.36179,468.05672 635.36179,466.95151 635.36179,465.3362 635.78687,463.38084 636.12694,461.51048 636.467,459.59762 636.72205,457.64226 637.10462,456.06946 637.40218,454.83673 637.95478,453.81654 637.95478,453.13641 637.95478,452.66882 637.74224,452.49879 637.48719,452.49879 636.63703,452.49879 636.12694,454.58168 635.27678,454.58168 633.87401,454.58168 632.98134,454.11409 631.6636,454.11409 630.55839,454.11409 629.70823,454.32663 628.56051,454.87924 626.30759,455.94194 624.35222,457.98232 622.82193,460.40528 621.50418,462.53068 620.44148,464.95363 620.44148,467.33408 Z M 623.41704,467.07903 C 623.41704,466.31389 623.50206,465.54874 623.62958,464.7836 624.01216,462.57318 625.03235,460.66032 626.26508,458.61994 627.54032,456.45203 629.79324,455.17679 631.53607,455.17679 632.42874,455.17679 634.3416,455.47435 634.3416,456.66457 634.3416,456.7921 633.19388,464.61357 632.17369,466.65395 631.79112,467.4191 629.79324,470.47967 626.73267,470.47967 624.94733,470.47967 623.41704,469.20443 623.41704,467.07903 Z"/>
	<path d="M 641.68751,458.53492 C 641.68751,459.00251 641.77253,459.34258 642.07008,459.34258 643.00526,459.34258 643.47285,456.96213 644.7906,456.96213 645.21568,456.96213 645.76828,457.81229 645.76828,459.30007 645.76828,462.57318 643.89793,469.16192 643.89793,470.94726 643.89793,472.17999 644.23799,472.26501 645.38571,472.26501 646.49092,472.26501 646.83098,472.09498 646.9585,471.1598 647.04352,470.56469 646.74596,471.07478 647.80866,465.3362 648.82886,459.85267 648.31876,460.23524 650.1466,457.64226 651.12429,456.23949 651.93194,455.7719 652.90962,455.7719 655.67264,455.7719 655.88518,458.57743 655.88518,459.25756 655.88518,460.83036 654.99252,466.52643 654.99252,469.75704 654.99252,471.24482 655.71515,472.43504 656.56531,472.43504 658.43566,472.43504 662.17637,469.45948 662.17637,467.80167 662.17637,467.54662 662.09135,467.29157 661.7938,467.29157 661.15618,467.29157 660.98614,467.80167 660.47605,468.43929 660.47605,468.43929 659.49836,469.37446 658.77573,469.37446 658.30814,469.37446 657.96808,469.0344 657.96808,467.84418 657.96808,466.3989 658.69071,461.89306 658.69071,458.9175 658.69071,456.23949 658.0956,453.604 655.12004,453.604 653.3347,453.604 651.08178,455.13428 649.93406,456.02695 648.36127,457.21718 648.06371,458.15235 647.80866,458.15235 647.42609,458.15235 648.31876,453.68901 645.8533,453.68901 644.23799,453.68901 641.68751,456.87711 641.68751,458.53492 Z"/>
	<path d="M 663.63825,469.88456 C 663.63825,472.13748 666.69882,472.69009 668.35663,472.69009 673.79766,472.69009 674.98788,468.65183 674.98788,467.12154 674.98788,464.2735 673.37258,463.08328 672.05483,461.5955 671.03464,460.49029 668.6967,458.74746 668.6967,457.13216 668.6967,455.85692 669.33432,454.87924 670.94962,454.87924 672.60743,454.87924 672.77747,457.25968 674.30775,457.25968 674.52029,457.25968 675.92306,457.13216 675.92306,455.81441 675.92306,454.1566 674.26525,453.604 671.96981,453.604 668.65419,453.604 666.18873,455.55936 666.18873,458.4074 666.18873,460.95788 667.80403,462.06309 669.50435,463.80592 671.03464,465.3362 672.4374,466.56894 672.4374,468.56681 672.4374,469.07691 672.13985,471.28732 669.03676,471.28732 666.44377,471.28732 667.16641,468.35427 664.9985,468.35427 664.48841,468.35427 663.63825,468.56681 663.63825,469.88456 Z"/>
	<path d="M 678.73788,468.5243 C 678.73788,472.52006 679.97062,472.52006 680.82078,472.52006 681.62843,472.52006 683.41376,471.6699 684.51897,470.39466 685.53916,469.20443 686.64437,467.75916 686.64437,467.33408 686.64437,466.909 686.43183,466.65395 686.13428,466.65395 685.02907,466.65395 684.60399,469.67202 682.26605,469.67202 681.71344,469.67202 681.58592,469.45948 681.58592,468.01421 681.58592,466.56894 682.09602,463.89093 682.81865,458.87499 684.17891,449.73577 683.45627,451.30856 685.02907,443.06201 685.15659,442.25436 685.45415,441.70176 685.45415,441.10665 685.45415,440.68157 685.24161,440.42652 684.56148,440.42652 683.45627,440.42652 682.5211,440.8516 679.41801,441.06414 678.86541,441.10665 678.78039,441.44671 678.78039,441.65925 678.78039,442.12684 679.16296,442.25436 680.01312,442.25436 680.52322,442.25436 680.60824,442.21185 681.24586,442.21185 681.88348,442.21185 682.30856,442.55192 682.30856,443.06201 682.30856,443.57211 681.67094,447.39783 680.9483,451.98869 680.52322,454.7092 680.31068,457.72727 679.92811,460.40528 679.84309,461.0854 678.73788,466.10135 678.73788,468.5243 Z"/>
	<path d="M 689.26791,467.33408 C 689.26791,470.0971 689.77801,472.81761 693.81627,472.81761 697.85453,472.81761 701.38269,467.71665 701.59523,467.71665 701.89279,467.71665 701.51021,472.47755 704.23073,472.47755 705.37844,472.47755 707.2913,470.52218 708.354,468.99189 708.90661,468.22675 709.11915,467.58913 709.11915,467.16405 709.11915,466.99402 709.07664,466.69646 708.73657,466.69646 707.92892,466.69646 707.03625,469.45948 705.63349,469.45948 704.82584,469.45948 704.18822,468.05672 704.18822,466.95151 704.18822,465.3362 704.6133,463.38084 704.95336,461.51048 705.29343,459.59762 705.54847,457.64226 705.93105,456.06946 706.2286,454.83673 706.78121,453.81654 706.78121,453.13641 706.78121,452.66882 706.56867,452.49879 706.31362,452.49879 705.46346,452.49879 704.95336,454.58168 704.1032,454.58168 702.70044,454.58168 701.80777,454.11409 700.49002,454.11409 699.38481,454.11409 698.53465,454.32663 697.38694,454.87924 695.13401,455.94194 693.17865,457.98232 691.64836,460.40528 690.33061,462.53068 689.26791,464.95363 689.26791,467.33408 Z M 692.24347,467.07903 C 692.24347,466.31389 692.32849,465.54874 692.45601,464.7836 692.83858,462.57318 693.85877,460.66032 695.09151,458.61994 696.36675,456.45203 698.61967,455.17679 700.3625,455.17679 701.25517,455.17679 703.16803,455.47435 703.16803,456.66457 703.16803,456.7921 702.02031,464.61357 701.00012,466.65395 700.61755,467.4191 698.61967,470.47967 695.55909,470.47967 693.77376,470.47967 692.24347,469.20443 692.24347,467.07903 Z"/>
	<path d="M 711.1416,455.60187 C 711.1416,456.7921 713.64957,455.85692 713.64957,456.74959 713.64957,457.8973 711.86423,464.7836 711.86423,468.69434 711.86423,472.00996 713.43703,472.69009 714.58475,472.69009 717.22024,472.69009 720.83342,469.79954 720.83342,468.69434 720.83342,468.09922 720.49336,468.09922 720.36583,468.09922 719.68571,468.09922 718.70802,469.96958 716.37008,469.96958 716.20005,469.96958 714.62725,469.88456 714.62725,467.63164 714.62725,466.95151 715.60494,461.42547 715.98751,458.78997 716.24256,457.04714 716.11503,456.282 717.34777,456.282 718.28294,456.282 720.11079,456.49454 720.79091,456.49454 721.55606,456.49454 721.81111,456.23949 721.81111,455.26181 721.81111,454.75171 721.59857,454.45416 720.7059,454.45416 720.23831,454.45416 719.89825,454.49666 718.24043,454.49666 716.83767,454.49666 716.75265,454.45416 716.75265,454.19911 716.75265,453.56149 717.5178,451.56361 717.5178,451.01101 717.5178,450.62844 717.30526,450.50091 717.09272,450.50091 716.41259,450.50091 716.32757,451.05352 714.62725,452.83885 712.7569,454.79422 711.1416,454.75171 711.1416,455.60187 Z"/>
	<path d="M 723.39054,465.93132 C 723.39054,469.71453 724.70829,472.69009 730.10681,472.69009 733.805,472.69009 737.5032,469.71453 737.5032,468.73684 737.5032,468.4818 737.33317,468.31176 736.9931,468.31176 736.52552,468.31176 734.8252,470.13961 732.40224,470.13961 728.19395,470.13961 726.28109,468.01421 726.28109,464.82611 726.28109,463.7209 726.40861,463.08328 727.00372,463.08328 730.99948,463.04077 733.29491,462.1056 733.67748,461.93556 734.48513,461.5955 737.80076,459.85267 737.80076,456.7921 737.80076,454.92174 736.10044,453.6465 734.10256,453.6465 731.72211,453.6465 729.76674,454.41165 728.19395,455.89943 725.2609,458.61994 723.39054,462.27563 723.39054,465.93132 Z M 726.8762,461.51048 C 726.8762,460.95788 727.85388,458.23737 729.12912,456.91962 730.23433,455.7719 731.55208,454.92174 732.61478,454.92174 733.33742,454.92174 734.8677,455.30432 734.8677,456.91962 734.8677,459.59762 731.38205,462.36064 727.25877,462.36064 726.96122,462.36064 726.8762,461.80804 726.8762,461.51048 Z"/>
	<path d="M 739.85575,466.86649 C 739.85575,470.05459 741.34353,472.52006 744.95671,472.52006 749.16501,472.52006 751.33291,467.75916 751.71549,467.75916 752.3106,467.75916 751.33291,472.52006 754.30847,472.52006 757.07149,472.52006 759.7495,468.22675 759.7495,467.33408 759.7495,467.16405 759.62197,466.95151 759.28191,466.95151 758.60178,466.95151 757.6241,469.587 755.75375,469.587 754.77606,469.587 754.64854,468.69434 754.64854,467.75916 754.64854,466.48392 755.07362,463.80592 755.54121,460.57531 757.92165,443.18954 758.34673,441.82928 758.34673,440.72407 758.34673,440.3415 758.04918,440.00144 757.66661,440.00144 756.51889,440.00144 756.77394,440.08645 754.39349,440.68157 753.20327,440.97912 751.71549,440.80909 751.71549,441.53173 751.71549,441.82928 751.97053,441.99931 752.39561,441.99931 752.43812,441.99931 753.41581,441.95681 753.88339,441.95681 754.52101,441.95681 755.11613,442.38189 755.11613,443.01951 755.11613,443.31706 753.71336,454.49666 753.58584,454.49666 752.39561,454.49666 751.54545,453.94406 750.44025,453.94406 745.38179,453.94406 739.85575,460.27775 739.85575,466.86649 Z M 742.83131,465.67627 C 742.83131,461.21293 746.31697,454.83673 750.22771,454.83673 751.37542,454.83673 753.07574,455.38933 753.07574,456.53705 753.07574,458.23737 752.43812,465.71878 750.7378,467.84418 749.63259,469.24694 747.97478,470.05459 746.44449,470.05459 743.85151,470.05459 742.83131,468.14173 742.83131,465.67627 Z"/>
	<path d="M 771.05796,469.16192 C 771.05796,471.62739 773.73596,472.7326 776.24393,472.7326 782.83267,472.7326 787.84862,465.12366 787.84862,459.34258 787.84862,456.57956 786.36084,453.94406 783.17274,453.94406 778.28432,453.94406 776.28644,457.8973 775.69133,457.8973 775.60631,457.8973 775.47879,457.55724 775.47879,457.25968 775.47879,454.19911 778.1993,441.53173 778.1993,440.76658 778.1993,440.29899 777.85924,440.00144 777.39165,440.00144 777.1366,440.00144 776.37146,440.25649 774.71365,440.46903 772.75828,440.72407 771.56805,440.68157 771.56805,441.53173 771.56805,442.12684 771.90812,442.12684 772.37571,442.12684 773.01333,442.12684 773.48091,442.04182 774.11853,442.04182 774.96869,442.04182 775.18123,442.33938 775.18123,442.55192 775.18123,443.57211 774.92619,445.05989 774.54361,446.88773 773.90599,450.03332 773.3959,454.1566 772.63075,458.57743 772.03564,462.02058 771.05796,466.44141 771.05796,469.16192 Z M 773.86349,468.65183 C 773.86349,468.22675 774.33107,463.67839 775.56381,460.32026 776.92406,456.62206 779.68708,456.19698 780.70727,456.19698 783.04521,456.19698 784.87306,458.15235 784.87306,460.5328 784.87306,465.42122 780.96232,471.54237 777.1366,471.54237 774.50111,471.54237 773.86349,470.0971 773.86349,468.65183 Z"/>
	<path d="M 789.4938,477.49349 C 789.4938,479.44886 791.19412,480.00146 793.02196,480.00146 797.01772,480.00146 799.73823,475.15555 801.7361,470.0971 804.24408,463.76341 805.26427,457.8973 805.26427,455.98444 805.26427,454.6667 804.54163,453.73152 803.60646,453.73152 802.58626,453.73152 802.16118,454.53917 802.16118,455.30432 802.16118,456.45203 803.22388,457.30219 803.22388,458.53492 803.22388,461.38296 802.28871,465.93132 801.6936,465.93132 801.22601,465.93132 797.18775,453.85904 793.06447,453.85904 790.47148,453.85904 789.62132,457.55724 789.62132,459.34258 789.62132,460.06521 789.79136,460.27775 790.0464,460.27775 791.32164,460.27775 790.42898,457.08965 792.89444,457.08965 795.14736,457.08965 799.82324,468.05672 799.82324,470.43716 799.82324,472.05247 797.01772,477.49349 794.55225,477.49349 792.59688,477.49349 792.55438,476.09073 790.85406,476.09073 790.13142,476.09073 789.4938,476.77086 789.4938,477.49349 Z"/>
</svg>
